<svg xmlns="http://www.w3.org/2000/svg" viewBox="0 0 32 32">
  <rect width="32" height="32" rx="4" fill="#18181b"/>
  <g transform="translate(8, 8) scale(0.666666)">
    <path stroke="#ffffff" fill="none" stroke-linecap="round" stroke-linejoin="round" stroke-width="3.75" d="M4.26 10.147a60.438 60.438 0 00-.491 6.347A48.627 48.627 0 0112 20.904a48.627 48.627 0 018.232-4.41 60.46 60.46 0 00-.491-6.347m-15.482 0a50.57 50.57 0 00-2.658-.813A59.906 59.906 0 0112 3.493a59.903 59.903 0 0110.399 5.84c-.896.248-1.783.52-2.658.814m-15.482 0A50.717 50.717 0 0112 13.489a50.702 50.702 0 017.74-3.342" />
  </g>
</svg>
